<svg id="visual" viewBox="0 0 960 540" width="960" height="540" xmlns="http://www.w3.org/2000/svg" xmlns:xlink="http://www.w3.org/1999/xlink" version="1.1"><g transform="translate(508.1134383394083 285.2175573410549)"><path d="M97.4 -157.4C128.6 -111.3 158 -86.1 184.4 -49.4C210.8 -12.7 234.3 35.5 227.1 78.7C219.8 121.9 181.9 160.1 139 189.3C96 218.5 48 238.7 -4.1 244.4C-56.2 250.1 -112.5 241.1 -165.6 215.2C-218.7 189.3 -268.6 146.4 -281.3 94.5C-293.9 42.5 -269.1 -18.4 -236.6 -64C-204.1 -109.6 -163.8 -139.7 -123 -182.7C-82.3 -225.8 -41.1 -281.6 -4 -276.1C33.1 -270.5 66.1 -203.5 97.4 -157.4" fill="#2700ba"></path></g></svg>